<svg width="30" height="30" viewBox="0 0 30 30" fill="none" xmlns="http://www.w3.org/2000/svg">
<g clip-path="url(#clip0_1_885)">
<g clip-path="url(#clip1_1_885)">
<path d="M6.78061 19.9673C6.92834 19.8197 7.12863 19.7367 7.33745 19.7367H26.6059C26.957 19.7367 27.1326 20.1611 26.8842 20.4093L23.077 24.2137C22.9292 24.3612 22.729 24.4441 22.52 24.4441H3.25163C2.90062 24.4441 2.72491 24.0198 2.97321 23.7717L6.78061 19.9673Z" fill="url(#paint0_linear_1_885)"/>
<path d="M6.78061 5.75433C6.92834 5.60672 7.12863 5.5238 7.33745 5.5238H26.6059C26.957 5.5238 27.1326 5.94826 26.8842 6.19636L23.077 10.0007C22.9292 10.1484 22.729 10.2313 22.52 10.2313H3.25163C2.90062 10.2313 2.72491 9.80674 2.97321 9.55865L6.78061 5.75433Z" fill="url(#paint1_linear_1_885)"/>
<path d="M23.077 12.8155C22.9292 12.668 22.729 12.585 22.52 12.585H3.25163C2.90062 12.585 2.72491 13.0094 2.97321 13.2575L6.78061 17.0619C6.92834 17.2095 7.12863 17.2925 7.33745 17.2925H26.6059C26.957 17.2925 27.1326 16.8681 26.8842 16.6199L23.077 12.8155Z" fill="url(#paint2_linear_1_885)"/>
</g>
</g>
<defs>
<linearGradient id="paint0_linear_1_885" x1="19.1795" y1="0.333959" x2="5.84412" y2="25.8765" gradientUnits="userSpaceOnUse">
<stop stop-color="#00FFA3"/>
<stop offset="1" stop-color="#DC1FFF"/>
</linearGradient>
<linearGradient id="paint1_linear_1_885" x1="19.1795" y1="0.33384" x2="5.84401" y2="25.8765" gradientUnits="userSpaceOnUse">
<stop stop-color="#00FFA3"/>
<stop offset="1" stop-color="#DC1FFF"/>
</linearGradient>
<linearGradient id="paint2_linear_1_885" x1="19.1795" y1="0.33389" x2="5.8441" y2="25.8765" gradientUnits="userSpaceOnUse">
<stop stop-color="#00FFA3"/>
<stop offset="1" stop-color="#DC1FFF"/>
</linearGradient>
<clipPath id="clip0_1_885">
<rect width="30" height="30" fill="white"/>
</clipPath>
<clipPath id="clip1_1_885">
<rect width="30" height="30" fill="white"/>
</clipPath>
</defs>
</svg>
