<svg width="23" height="23" viewBox="0 0 23 23" fill="none" xmlns="http://www.w3.org/2000/svg">
<g clip-path="url(#clip0_1_891)">
<g clip-path="url(#clip1_1_891)">
<g clip-path="url(#clip2_1_891)">
<mask id="mask0_1_891" style="mask-type:luminance" maskUnits="userSpaceOnUse" x="0" y="0" width="23" height="23">
<path d="M23 0H0V22.08H23V0Z" fill="white"/>
</mask>
<g mask="url(#mask0_1_891)">
<path d="M11.2178 0.0641182C11.7191 -0.207461 12.331 0.42256 12.0647 0.942893C11.91 1.36705 11.3235 1.47984 11.0239 1.15653C10.7065 0.846238 10.81 0.232944 11.2178 0.0641182ZM5.82604 0.667973C6.13056 0.537739 6.51604 0.827599 6.48499 1.17242C6.5173 1.54675 6.07674 1.82228 5.76635 1.64437C5.35511 1.47889 5.40215 0.785303 5.82604 0.667973ZM16.869 1.65488C16.3931 1.59515 16.3179 0.817802 16.776 0.661282C17.1313 0.481224 17.4574 0.818876 17.5093 1.16884C17.4348 1.46765 17.194 1.74127 16.869 1.65488ZM7.05286 3.0522C7.56196 2.71766 8.28842 3.21589 8.2101 3.83027C8.18365 4.4506 7.39061 4.81 6.94315 4.39063C6.51052 4.06121 6.57607 3.30551 7.05286 3.0522ZM14.8247 3.40719C15.0518 2.79903 15.9721 2.78063 16.2306 3.37265C16.4862 3.83337 16.1719 4.40389 15.7166 4.56053C15.1136 4.6775 14.5407 4.00016 14.8247 3.40719ZM10.5685 4.526C10.5635 4.00327 11.0219 3.61376 11.5 3.57816C11.8172 3.64423 12.1629 3.78463 12.2989 4.11713C12.5525 4.57583 12.3274 5.2074 11.8692 5.41792C11.6596 5.53991 11.412 5.49415 11.1838 5.47993C10.8349 5.30203 10.5413 4.95315 10.5685 4.526ZM2.55015 5.28768C3.01521 4.99065 3.64265 5.53275 3.46658 6.05762C3.36964 6.51164 2.78222 6.69636 2.44642 6.40651C2.08796 6.13492 2.14477 5.48196 2.55015 5.28768ZM19.7685 5.28673C20.1631 4.96844 20.8142 5.33357 20.7672 5.85116C20.7937 6.32311 20.2307 6.67904 19.839 6.43601C19.4077 6.23457 19.3636 5.54505 19.7685 5.28673ZM12.8234 6.22644C13.4746 5.98343 14.2479 6.27424 14.6191 6.87737C15.1086 7.61469 14.8482 8.73757 14.0884 9.16065C13.3013 9.66101 12.1518 9.23689 11.8611 8.32356C11.5311 7.50596 12.0119 6.48273 12.8234 6.22644ZM9.00314 6.30685C9.72477 5.95296 10.6959 6.24987 11.0445 7.01681C11.4547 7.76332 11.1375 8.8028 10.4042 9.18825C9.66994 9.62145 8.63399 9.29301 8.27864 8.49156C7.88017 7.71648 8.23402 6.66375 9.00314 6.30685ZM5.1779 7.66559C5.23275 7.18253 5.67136 6.86817 6.11388 6.83568C6.59067 6.89542 6.97155 7.28015 7.02342 7.78148C6.99214 8.2778 6.62299 8.76289 6.11676 8.75991C5.55981 8.80973 5.07152 8.23408 5.1779 7.66559ZM16.4764 6.9407C17.0482 6.59492 17.8421 7.09829 17.8167 7.78077C17.8559 8.50387 16.9772 9.01345 16.4078 8.58929C15.8165 8.23611 15.8625 7.24143 16.4764 6.9407ZM7.44846 9.48924C8.11718 9.29807 8.88182 9.62559 9.20975 10.2642C9.56901 10.907 9.42218 11.8 8.86422 12.2714C8.14858 12.963 6.82872 12.6853 6.44784 11.7416C6.01015 10.8764 6.5418 9.71694 7.44846 9.48924ZM14.6945 9.48565C15.3446 9.29245 16.1083 9.55281 16.4578 10.1681C16.9198 10.8718 16.6993 11.9214 16.0113 12.3752C15.2908 12.902 14.1745 12.6253 13.778 11.8017C13.2973 10.9496 13.781 9.74546 14.6945 9.48565ZM3.14734 10.2885C3.72499 10.0616 4.36531 10.7238 4.13128 11.3188C3.98834 11.8609 3.25303 12.0613 2.87318 11.6616C2.42871 11.2864 2.59327 10.4513 3.14734 10.2885ZM18.8046 11.152C18.7879 10.6548 19.1381 10.2144 19.6289 10.1869C20.0245 10.252 20.4092 10.5836 20.3779 11.031C20.4142 11.622 19.7288 12.0237 19.2441 11.746C19.017 11.626 18.9005 11.384 18.8046 11.152ZM0.307072 10.5805C0.654602 10.4229 1.08447 10.7358 1.00512 11.1368C0.986489 11.5908 0.341342 11.7653 0.104327 11.386C-0.105088 11.1225 0.0202624 10.7162 0.307072 10.5805ZM22.2195 10.5713C22.4642 10.3904 22.8568 10.5205 22.9538 10.8174C23.1182 11.1418 22.8167 11.5864 22.4653 11.5315C21.9719 11.5782 21.8123 10.797 22.2195 10.5713ZM9.33607 12.7508C10.2505 12.5037 11.2336 13.296 11.2393 14.2743C11.299 15.2629 10.3308 16.1395 9.39467 15.9112C8.67114 15.7901 8.10338 15.066 8.12684 14.3063C8.12489 13.5797 8.65262 12.9045 9.33607 12.7508ZM12.9576 12.7488C13.8858 12.4792 14.8981 13.2857 14.8834 14.2866C14.9324 15.2569 13.9945 16.104 13.0779 15.9116C12.2154 15.7957 11.579 14.8111 11.8198 13.9416C11.9414 13.3621 12.4074 12.8909 12.9576 12.7488ZM5.97496 13.3509C6.61724 13.237 7.21938 13.9816 6.9589 14.6152C6.76892 15.2904 5.82316 15.4736 5.40502 14.922C4.91455 14.3924 5.28071 13.4241 5.97496 13.3509ZM16.5958 13.3807C17.1685 13.1314 17.8715 13.6462 17.8274 14.292C17.8504 15.0029 16.9826 15.4931 16.4225 15.0781C15.7881 14.7056 15.9036 13.6093 16.5958 13.3807ZM19.5644 16.4743C19.3401 16.04 19.7474 15.4644 20.2116 15.5448C20.4427 15.5406 20.6042 15.7298 20.7521 15.8885C20.7824 16.1458 20.8334 16.4529 20.6278 16.6513C20.3486 17.0184 19.7161 16.9136 19.5644 16.4743ZM2.54819 15.6657C2.98197 15.3656 3.60619 15.813 3.50867 16.34C3.45681 16.806 2.89181 17.0723 2.51967 16.8078C2.12028 16.5678 2.135 15.8844 2.54819 15.6657ZM11.118 16.641C11.6858 16.3808 12.4093 16.8944 12.3555 17.5442C12.3976 18.2623 11.5028 18.7596 10.9475 18.3284C10.3308 17.9581 10.4336 16.8688 11.118 16.641ZM7.14877 17.6032C7.63246 17.3388 8.28152 17.7954 8.23747 18.3578C8.25219 18.8196 7.81841 19.2132 7.3798 19.1449C7.01652 19.1368 6.77962 18.7984 6.66312 18.4766C6.6691 18.126 6.80802 17.7354 7.14877 17.6032ZM15.1888 17.6113C15.6863 17.2919 16.3931 17.7506 16.3461 18.3521C16.3589 18.9806 15.56 19.3833 15.0968 18.9704C14.6485 18.6466 14.7033 17.8686 15.1888 17.6113ZM16.587 21.2025C16.3658 20.8546 16.6262 20.4357 16.9855 20.3564C17.2744 20.4174 17.5798 20.643 17.5191 20.991C17.4771 21.4618 16.8142 21.6064 16.587 21.2025ZM5.48828 20.9005C5.57637 20.6248 5.78981 20.3509 6.10215 20.4225C6.55744 20.4561 6.69256 21.169 6.29409 21.3888C5.93575 21.6398 5.52002 21.2961 5.48828 20.9005ZM10.8428 21.2167C10.93 20.8089 11.438 20.6106 11.7729 20.8272C11.9941 20.9259 12.0588 21.1832 12.1156 21.4018C12.0852 21.5157 12.0581 21.6297 12.0314 21.7435C11.8943 21.9124 11.7181 22.0812 11.49 22.075C11.066 22.1266 10.6835 21.6286 10.8428 21.2167Z" fill="#3CC8C8"/>
</g>
</g>
</g>
</g>
<defs>
<clipPath id="clip0_1_891">
<rect width="23" height="22.08" fill="white"/>
</clipPath>
<clipPath id="clip1_1_891">
<rect width="23" height="22.08" fill="white"/>
</clipPath>
<clipPath id="clip2_1_891">
<rect width="23" height="22.08" fill="white"/>
</clipPath>
</defs>
</svg>
