<svg width="1440" height="804" viewBox="0 0 1440 804" fill="none" xmlns="http://www.w3.org/2000/svg">
<g clip-path="url(#clip0_1_700)">
<g clip-path="url(#clip1_1_700)">
<g clip-path="url(#clip2_1_700)">
<path d="M18.3134 544.93H-9.10693V642.552H18.3134V544.93Z" fill="#101C30"/>
<path d="M58.1977 600.358H30.7764V620.214H58.1977V600.358Z" fill="#101C30"/>
<path d="M98.9144 513.078H71.4932V619.8H98.9144V513.078Z" fill="#101C30"/>
<path d="M139.627 513.078H112.205V561.062H139.627V513.078Z" fill="#101C30"/>
<path d="M179.517 482.469H152.095V537.071H179.517V482.469Z" fill="#101C30"/>
<path d="M220.231 458.889H192.811V483.709H220.231V458.889Z" fill="#101C30"/>
<path d="M5.85054 537.071H2.5271V545.758H5.85054V537.071Z" fill="#101C30"/>
<path d="M5.85054 641.724H2.5271V650.411H5.85054V641.724Z" fill="#101C30"/>
<path d="M46.5646 619.8H43.2412V628.486H46.5646V619.8Z" fill="#101C30"/>
<path d="M46.5646 591.671H43.2412V600.358H46.5646V591.671Z" fill="#101C30"/>
<path d="M127.162 561.062H123.837V569.748H127.162V561.062Z" fill="#101C30"/>
<path d="M167.882 537.071H164.558V545.758H167.882V537.071Z" fill="#101C30"/>
<path d="M167.882 473.781H164.558V482.467H167.882V473.781Z" fill="#101C30"/>
<path d="M207.767 484.121H204.443V492.808H207.767V484.121Z" fill="#101C30"/>
<path d="M207.767 452.27H204.443V460.957H207.767V452.27Z" fill="#101C30"/>
<path d="M127.162 504.391H123.837V513.078H127.162V504.391Z" fill="#101C30"/>
<path d="M87.2815 504.391H83.957V513.078H87.2815V504.391Z" fill="#101C30"/>
<path d="M87.2815 619.8H83.957V628.486H87.2815V619.8Z" fill="#101C30"/>
<path d="M260.95 507.286H233.528V637.588H260.95V507.286Z" fill="#101C30"/>
<path d="M301.667 479.159H274.246V529.211H301.667V479.159Z" fill="#101C30"/>
<path d="M342.382 408.01H314.96V492.395H342.382V408.01Z" fill="#101C30"/>
<path d="M382.266 443.171H354.846V496.533H382.266V443.171Z" fill="#101C30"/>
<path d="M422.983 479.159H395.562V510.182H422.983V479.159Z" fill="#101C30"/>
<path d="M462.867 496.531H435.446V549.479H462.867V496.531Z" fill="#101C30"/>
<path d="M503.585 549.481H476.164V563.958H503.585V549.481Z" fill="#101C30"/>
<path d="M543.471 499.842H516.051V538.725H543.471V499.842Z" fill="#101C30"/>
<path d="M584.188 406.77H556.768V506.874H584.188V406.77Z" fill="#101C30"/>
<path d="M624.904 464.68H597.483V536.657H624.904V464.68Z" fill="#101C30"/>
<path d="M664.785 475.022H637.363V523.006H664.785V475.022Z" fill="#101C30"/>
<path d="M705.502 475.022H678.081V559.408H705.502V475.022Z" fill="#101C30"/>
<path d="M745.39 507.286H717.972V591.672H745.39V507.286Z" fill="#101C30"/>
<path d="M786.102 554.444H758.684V579.263H786.102V554.444Z" fill="#101C30"/>
<path d="M825.994 517.215H798.565V601.6H825.994V517.215Z" fill="#101C30"/>
<path d="M866.705 488.672H839.287V559.407H866.705V488.672Z" fill="#101C30"/>
<path d="M907.418 436.965H880V521.35H907.418V436.965Z" fill="#101C30"/>
<path d="M947.309 448.134H919.88V490.741H947.309V448.134Z" fill="#101C30"/>
<path d="M988.021 412.146H960.603V448.134H988.021V412.146Z" fill="#101C30"/>
<path d="M1027.9 329.83H1000.48V485.777H1027.9V329.83Z" fill="#101C30"/>
<path d="M1068.62 318.661H1041.21V405.528H1068.62V318.661Z" fill="#101C30"/>
<path d="M1108.51 243.377H1081.09V327.762H1108.51V243.377Z" fill="#101C30"/>
<path d="M1149.23 254.131H1121.81V290.533H1149.23V254.131Z" fill="#101C30"/>
<path d="M1189.94 216.903H1162.52V235.104H1189.94V216.903Z" fill="#101C30"/>
<path d="M1229.83 201.185H1202.4V234.277H1229.83V201.185Z" fill="#101C30"/>
<path d="M1270.54 222.28H1243.12V306.665H1270.54V222.28Z" fill="#101C30"/>
<path d="M1310.42 295.911H1283V342.654H1310.42V295.911Z" fill="#101C30"/>
<path d="M1351.15 309.561H1323.72V393.946H1351.15V309.561Z" fill="#101C30"/>
<path d="M1391.03 285.982H1363.61V314.111H1391.03V285.982Z" fill="#101C30"/>
<path d="M1431.75 192.083H1404.33V276.469H1431.75V192.083Z" fill="#101C30"/>
<path d="M249.317 499.842H245.993V508.528H249.317V499.842Z" fill="#101C30"/>
<path d="M290.035 529.624H286.71V538.31H290.035V529.624Z" fill="#101C30"/>
<path d="M290.035 471.298H286.71V479.985H290.035V471.298Z" fill="#101C30"/>
<path d="M329.917 491.982H326.594V500.669H329.917V491.982Z" fill="#101C30"/>
<path d="M370.63 496.531H367.306V505.218H370.63V496.531Z" fill="#101C30"/>
<path d="M370.63 434.484H367.306V443.171H370.63V434.484Z" fill="#101C30"/>
<path d="M329.917 399.736H326.594V408.423H329.917V399.736Z" fill="#101C30"/>
<path d="M410.52 510.597H407.197V519.283H410.52V510.597Z" fill="#101C30"/>
<path d="M410.52 470.472H407.197V479.158H410.52V470.472Z" fill="#101C30"/>
<path d="M451.234 487.845H447.91V496.532H451.234V487.845Z" fill="#101C30"/>
<path d="M451.234 549.481H447.91V558.167H451.234V549.481Z" fill="#101C30"/>
<path d="M531.835 491.568H528.511V500.254H531.835V491.568Z" fill="#101C30"/>
<path d="M572.552 506.872H569.229V515.559H572.552V506.872Z" fill="#101C30"/>
<path d="M612.437 536.241H609.114V544.928H612.437V536.241Z" fill="#101C30"/>
<path d="M653.152 523.007H649.827V531.693H653.152V523.007Z" fill="#101C30"/>
<path d="M653.152 466.336H649.827V475.022H653.152V466.336Z" fill="#101C30"/>
<path d="M693.042 466.336H689.718V475.022H693.042V466.336Z" fill="#101C30"/>
<path d="M733.758 499.014H730.435V507.7H733.758V499.014Z" fill="#101C30"/>
<path d="M773.64 546.17H770.316V554.857H773.64V546.17Z" fill="#101C30"/>
<path d="M814.352 508.942H811.028V517.629H814.352V508.942Z" fill="#101C30"/>
<path d="M855.073 559.406H851.75V568.093H855.073V559.406Z" fill="#101C30"/>
<path d="M894.955 521.352H891.631V530.039H894.955V521.352Z" fill="#101C30"/>
<path d="M935.677 490.741H932.354V499.428H935.677V490.741Z" fill="#101C30"/>
<path d="M855.073 479.985H851.75V488.672H855.073V479.985Z" fill="#101C30"/>
<path d="M894.955 428.28H891.631V436.966H894.955V428.28Z" fill="#101C30"/>
<path d="M935.677 439.861H932.354V448.548H935.677V439.861Z" fill="#101C30"/>
<path d="M975.558 403.461H972.234V412.148H975.558V403.461Z" fill="#101C30"/>
<path d="M975.558 448.134H972.234V456.821H975.558V448.134Z" fill="#101C30"/>
<path d="M1056.16 405.528H1052.84V414.215H1056.16V405.528Z" fill="#101C30"/>
<path d="M1016.27 484.535H1012.95V493.222H1016.27V484.535Z" fill="#101C30"/>
<path d="M1016.27 320.315H1012.95V329.002H1016.27V320.315Z" fill="#101C30"/>
<path d="M1056.16 310.388H1052.84V319.075H1056.16V310.388Z" fill="#101C30"/>
<path d="M1096.87 327.761H1093.55V336.447H1096.87V327.761Z" fill="#101C30"/>
<path d="M1137.59 290.533H1134.27V299.22H1137.59V290.533Z" fill="#101C30"/>
<path d="M1096.87 235.104H1093.55V243.791H1096.87V235.104Z" fill="#101C30"/>
<path d="M1137.59 245.445H1134.27V254.132H1137.59V245.445Z" fill="#101C30"/>
<path d="M1177.48 208.217H1174.15V216.904H1177.48V208.217Z" fill="#101C30"/>
<path d="M1177.48 235.104H1174.15V243.791H1177.48V235.104Z" fill="#101C30"/>
<path d="M1218.19 234.276H1214.86V242.963H1218.19V234.276Z" fill="#101C30"/>
<path d="M1258.08 307.078H1254.76V315.765H1258.08V307.078Z" fill="#101C30"/>
<path d="M1298.79 287.223H1295.47V295.91H1298.79V287.223Z" fill="#101C30"/>
<path d="M1338.68 300.873H1335.36V309.56H1338.68V300.873Z" fill="#101C30"/>
<path d="M1379.39 277.709H1376.07V286.395H1379.39V277.709Z" fill="#101C30"/>
<path d="M1420.11 276.469H1416.78V285.156H1420.11V276.469Z" fill="#101C30"/>
<path d="M1420.11 183.811H1416.78V192.498H1420.11V183.811Z" fill="#101C30"/>
<path d="M1379.39 314.111H1376.07V322.798H1379.39V314.111Z" fill="#101C30"/>
<path d="M1298.79 342.239H1295.47V350.926H1298.79V342.239Z" fill="#101C30"/>
<path d="M1338.68 393.945H1335.36V402.632H1338.68V393.945Z" fill="#101C30"/>
<path d="M1218.19 193.324H1214.86V202.01H1218.19V193.324Z" fill="#101C30"/>
<path d="M1258.08 214.008H1254.76V222.695H1258.08V214.008Z" fill="#101C30"/>
<path d="M814.352 601.599H811.028V610.286H814.352V601.599Z" fill="#101C30"/>
<path d="M773.64 578.85H770.316V587.537H773.64V578.85Z" fill="#101C30"/>
<path d="M733.758 591.672H730.435V600.358H733.758V591.672Z" fill="#101C30"/>
<path d="M693.042 559.406H689.718V568.093H693.042V559.406Z" fill="#101C30"/>
<path d="M612.437 456.821H609.114V465.508H612.437V456.821Z" fill="#101C30"/>
<path d="M572.552 398.083H569.229V406.769H572.552V398.083Z" fill="#101C30"/>
<path d="M531.835 538.726H528.511V547.413H531.835V538.726Z" fill="#101C30"/>
<path d="M491.12 541.206H487.796V549.893H491.12V541.206Z" fill="#101C30"/>
<path d="M491.12 563.959H487.796V572.645H491.12V563.959Z" fill="#101C30"/>
<path d="M249.317 637.174H245.993V645.861H249.317V637.174Z" fill="#101C30"/>
</g>
</g>
</g>
<defs>
<clipPath id="clip0_1_700">
<rect width="1922" height="1163.2" fill="white" transform="translate(-192)"/>
</clipPath>
<clipPath id="clip1_1_700">
<rect width="1922" height="1163.2" fill="white" transform="translate(-284 32)"/>
</clipPath>
<clipPath id="clip2_1_700">
<rect width="1921.98" height="1163.2" fill="white" transform="translate(-283.991 32)"/>
</clipPath>
</defs>
</svg>
