<svg width="219" height="260" viewBox="0 0 219 260" fill="none" xmlns="http://www.w3.org/2000/svg">
<path d="M169.767 163.476L218.814 179.027C211.295 206.371 198.762 226.708 181.217 240.038C163.785 253.254 141.625 259.862 114.737 259.862C81.4691 259.862 54.1253 248.526 32.7061 225.854C11.2868 203.067 0.577148 171.964 0.577148 132.543C0.577148 90.8438 11.3438 58.487 32.877 35.4727C54.4102 12.3444 82.7223 0.780273 117.813 0.780273C148.461 0.780273 173.355 9.83789 192.496 27.9531C203.889 38.6628 212.434 54.0436 218.131 74.0957L168.058 86.0586C165.095 73.0703 158.886 62.8164 149.43 55.2969C140.087 47.7773 128.694 44.0176 115.25 44.0176C96.679 44.0176 81.583 50.6826 69.9619 64.0127C58.4548 77.3428 52.7012 98.9329 52.7012 128.783C52.7012 160.456 58.3978 183.015 69.791 196.459C81.1842 209.903 95.9954 216.625 114.225 216.625C127.669 216.625 139.233 212.353 148.917 203.808C158.601 195.263 165.551 181.819 169.767 163.476Z" fill="#0B1D35"/>
</svg>
