<svg width="27" height="27" viewBox="0 0 27 27" fill="none" xmlns="http://www.w3.org/2000/svg">
<g clip-path="url(#clip0_1_684)">
<g clip-path="url(#clip1_1_684)">
<g clip-path="url(#clip2_1_684)">
<path d="M13.5 0C6.06604 0 0 6.06709 0 13.5C0 20.9341 6.06735 27 13.5 27C20.8931 27 27 20.9634 27 13.5C27 6.06593 20.9326 0 13.5 0ZM9.49498 2.27512C8.86048 3.08591 8.35724 4.01483 7.95751 4.95445C7.40686 4.66346 6.87799 4.32838 6.37601 3.95118C7.31805 3.24654 8.36773 2.67854 9.49498 2.27512ZM5.15109 5.00402C5.85631 5.563 6.61157 6.04684 7.40517 6.45042C6.80817 8.32866 6.45975 10.4695 6.39309 12.709H1.60893C1.80705 9.70096 3.12583 6.99453 5.15109 5.00402ZM1.60893 14.291H6.39309C6.4597 16.5305 6.80817 18.6713 7.40517 20.5496C6.61157 20.9532 5.85631 21.437 5.15109 21.996C3.12583 20.0055 1.80705 17.299 1.60893 14.291ZM6.37601 23.0488C6.87799 22.6716 7.40691 22.3365 7.95751 22.0456C8.07168 22.3139 8.19134 22.5751 8.317 22.8278C8.6756 23.5491 9.07063 24.1826 9.49498 24.7249C8.36773 24.3215 7.31805 23.7535 6.37601 23.0488ZM12.709 25.2827C11.6245 24.9151 10.5715 23.8089 9.73366 22.1235C9.61785 21.8906 9.50764 21.6495 9.40254 21.4015C10.4594 21.0127 11.572 20.7741 12.709 20.6983V25.2827ZM12.709 19.1139C11.3864 19.1916 10.0916 19.4632 8.86322 19.9142C8.34432 18.2281 8.03909 16.308 7.9757 14.291H12.709V19.1139ZM12.709 12.709H7.9757C8.03909 10.692 8.34432 8.77189 8.86322 7.08576C10.0916 7.5368 11.3864 7.80843 12.709 7.88611V12.709ZM12.709 6.30165C11.572 6.22593 10.4594 5.98725 9.40254 5.59855C10.0417 4.09008 11.158 2.24306 12.709 1.71735V6.30165ZM25.3911 12.709H20.6069C20.5403 10.4695 20.1918 8.32871 19.5948 6.45042C20.3884 6.04684 21.1437 5.563 21.8489 5.00402C23.8742 6.99453 25.193 9.70096 25.3911 12.709ZM20.624 3.95118C20.122 4.32838 19.5931 4.66346 19.0425 4.95445C18.6427 4.01477 18.1395 3.08586 17.505 2.27512C18.6323 2.67854 19.6819 3.24654 20.624 3.95118ZM14.291 1.71735C15.8421 2.24306 16.9583 4.09013 17.5975 5.59855C16.5406 5.98725 15.428 6.22593 14.291 6.30165V1.71735ZM14.291 7.88611C15.6136 7.80843 16.9084 7.5368 18.1368 7.08576C18.6557 8.77189 18.9609 10.692 19.0243 12.709H14.291V7.88611ZM14.291 14.2857H19.0243C18.9609 16.3027 18.6557 18.2281 18.1368 19.9142C16.9084 19.4632 15.6136 19.1916 14.291 19.1139V14.2857ZM14.291 25.2827V20.6983C15.428 20.7741 16.5406 21.0127 17.5975 21.4015C17.4924 21.6495 17.3821 21.8907 17.2663 22.1235C16.4285 23.8089 15.3755 24.9151 14.291 25.2827ZM17.505 24.7249C17.9294 24.1826 18.3244 23.5491 18.683 22.8278C18.8087 22.5751 18.9283 22.3139 19.0425 22.0456C19.5931 22.3365 20.122 22.6716 20.624 23.0488C19.6819 23.7535 18.6323 24.3215 17.505 24.7249ZM21.8489 21.996C21.1437 21.437 20.3884 20.9532 19.5948 20.5496C20.1918 18.6713 20.5403 16.5252 20.6069 14.2857H25.3911C25.193 17.2938 23.8742 20.0055 21.8489 21.996Z" fill="#0466A6"/>
</g>
</g>
</g>
<defs>
<clipPath id="clip0_1_684">
<rect width="27" height="27" fill="white"/>
</clipPath>
<clipPath id="clip1_1_684">
<rect width="27" height="27" fill="white"/>
</clipPath>
<clipPath id="clip2_1_684">
<rect width="27" height="27" fill="white"/>
</clipPath>
</defs>
</svg>
