<svg width="27" height="27" viewBox="0 0 27 27" fill="none" xmlns="http://www.w3.org/2000/svg">
<g clip-path="url(#clip0_1_679)">
<g clip-path="url(#clip1_1_679)">
<path d="M21.0938 9.91406H19.1934V5.57771C19.1934 2.50214 16.6384 0 13.498 0C10.3577 0 7.80274 2.50214 7.80274 5.57771V9.91406H5.90625C4.16159 9.91406 2.74219 11.3335 2.74219 13.0781V23.8359C2.74219 25.5806 4.16159 27 5.90625 27H21.0938C22.8384 27 24.2578 25.5806 24.2578 23.8359V13.0781C24.2578 11.3335 22.8384 9.91406 21.0938 9.91406ZM9.91211 5.57771C9.91211 3.66525 11.5208 2.10938 13.498 2.10938C15.4753 2.10938 17.084 3.66525 17.084 5.57771V9.91406H9.91211V5.57771ZM22.1484 23.8359C22.1484 24.4175 21.6753 24.8906 21.0938 24.8906H5.90625C5.3247 24.8906 4.85156 24.4175 4.85156 23.8359V13.0781C4.85156 12.4966 5.3247 12.0234 5.90625 12.0234H21.0938C21.6753 12.0234 22.1484 12.4966 22.1484 13.0781V23.8359Z" fill="#0466A6"/>
<path d="M13.5 15.082C12.4224 15.082 11.5488 15.9556 11.5488 17.0332C11.5488 17.7213 11.9053 18.3257 12.4434 18.6731V20.9883C12.4434 21.5707 12.9155 22.043 13.498 22.043C14.0805 22.043 14.5527 21.5707 14.5527 20.9883V18.6756C15.0929 18.3286 15.4512 17.723 15.4512 17.0332C15.4512 15.9556 14.5776 15.082 13.5 15.082Z" fill="#0466A6"/>
</g>
</g>
<defs>
<clipPath id="clip0_1_679">
<rect width="27" height="27" fill="white"/>
</clipPath>
<clipPath id="clip1_1_679">
<rect width="27" height="27" fill="white"/>
</clipPath>
</defs>
</svg>
