<svg width="27" height="27" viewBox="0 0 27 27" fill="none" xmlns="http://www.w3.org/2000/svg">
<g clip-path="url(#clip0_1_688)">
<g clip-path="url(#clip1_1_688)">
<g clip-path="url(#clip2_1_688)">
<path d="M11.7231 10.483C12.7647 9.35327 13.3385 7.83792 13.3385 6.21564C13.3385 3.12685 11.1322 0 6.91479 0C4.95207 0 3.29627 0.674141 2.12617 1.9495C1.0897 3.07936 0.519043 4.59436 0.519043 6.21564C0.519043 9.30476 2.71594 12.4314 6.91479 12.4314C8.88484 12.4315 10.5479 11.7579 11.7231 10.483ZM6.91479 2.89007C9.22562 2.89007 10.278 4.61508 10.278 6.21783C10.278 7.08968 9.98464 7.89678 9.45145 8.49017C8.85663 9.15294 7.99219 9.5034 6.95226 9.5034C4.583 9.5034 3.50367 7.77855 3.50367 6.17598C3.50367 4.54064 4.55859 2.89007 6.91479 2.89007Z" fill="#0466A6"/>
<path d="M22.2532 2.3978C21.871 2.40471 21.3492 2.64301 21.0935 2.9272L2.12088 24.0214C1.86532 24.3058 2.04636 24.7044 2.42857 24.7044H4.91176C5.29397 24.7044 5.81527 24.4713 6.07041 24.1867L24.9257 3.09678C25.1808 2.81192 25.1639 2.34846 24.5323 2.34863L22.2532 2.3978Z" fill="#0466A6"/>
<path d="M20.1797 14.8049C18.2549 14.8049 16.6306 15.4666 15.4826 16.7177C14.4659 17.8256 13.9058 19.3121 13.9058 20.9025C13.9058 23.9325 16.0609 26.9999 20.1798 26.9999C22.1129 26.9999 23.7439 26.3389 24.897 25.0884C25.9188 23.9802 26.4815 22.4936 26.4815 20.9025C26.4814 17.8725 24.317 14.8049 20.1797 14.8049ZM20.217 24.2019C17.9119 24.2019 16.8616 22.4709 16.8616 20.8633C16.8616 19.9878 17.1548 19.1777 17.6876 18.582C18.2814 17.9173 19.1432 17.566 20.1798 17.566C22.4851 17.566 23.5349 19.2967 23.5349 20.9048C23.5349 21.78 23.2416 22.5903 22.7093 23.1859C22.1152 23.8506 21.2534 24.2019 20.217 24.2019Z" fill="#0466A6"/>
</g>
</g>
</g>
<defs>
<clipPath id="clip0_1_688">
<rect width="27" height="27" fill="white"/>
</clipPath>
<clipPath id="clip1_1_688">
<rect width="27" height="27" fill="white"/>
</clipPath>
<clipPath id="clip2_1_688">
<rect width="27" height="27" fill="white"/>
</clipPath>
</defs>
</svg>
