<svg width="18" height="21" viewBox="0 0 18 21" fill="none" xmlns="http://www.w3.org/2000/svg">
<g clip-path="url(#clip0_1_34)">
<g clip-path="url(#clip1_1_34)">
<g clip-path="url(#clip2_1_34)">
<path d="M8.64484 0L17.2846 3.83988V10.4492C17.2846 13.7749 14.4046 16.9832 8.64484 20.0741C2.88504 16.9832 0.00512695 13.7749 0.00512695 10.4492V3.83988L8.64484 0ZM8.64484 1.89064L1.73307 4.96207V10.4492C1.73307 12.9315 4.03699 15.4815 8.64484 18.0997C13.2527 15.481 15.5566 12.931 15.5566 10.4492V4.96207L8.64484 1.89064ZM10.6259 7.24631L11.8476 8.46815L7.78087 12.5349L5.44201 10.1961L6.66384 8.97426L7.78087 10.0906L10.6259 7.24631Z" fill="#04609D"/>
</g>
</g>
</g>
<defs>
<clipPath id="clip0_1_34">
<rect width="18" height="20.83" fill="white"/>
</clipPath>
<clipPath id="clip1_1_34">
<rect width="18" height="20.83" fill="white"/>
</clipPath>
<clipPath id="clip2_1_34">
<rect width="17.9895" height="20.83" fill="white" transform="translate(0.00512695)"/>
</clipPath>
</defs>
</svg>
