<svg width="96" height="34" viewBox="0 0 96 34" fill="none" xmlns="http://www.w3.org/2000/svg">
<g clip-path="url(#clip0_1_592)">
<g clip-path="url(#clip1_1_592)">
<path d="M29.5 20.6724L32.899 22.7243L31.997 18.8578L35 16.2563L31.046 15.9213L29.5 12.2757L27.954 15.9213L24 16.2563L27.003 18.8578L26.101 22.7243L29.5 20.6724Z" fill="#F3EA00"/>
<path d="M44.5 20.6724L47.899 22.7243L46.997 18.8578L50 16.2563L46.046 15.9213L44.5 12.2757L42.954 15.9213L39 16.2563L42.003 18.8578L41.101 22.7243L44.5 20.6724Z" fill="#F3EA00"/>
<path d="M60 20.6724L63.09 22.7243L62.27 18.8578L65 16.2563L61.4054 15.9213L60 12.2757L58.5946 15.9213L55 16.2563L57.73 18.8578L56.91 22.7243L60 20.6724Z" fill="#F3EA00"/>
<path d="M75.5 20.6724L78.899 22.7243L77.997 18.8578L81 16.2563L77.046 15.9213L75.5 12.2757L73.954 15.9213L70 16.2563L73.003 18.8578L72.101 22.7243L75.5 20.6724Z" fill="#F3E900"/>
<path d="M90.5 20.6724L93.899 22.7243L92.997 18.8578L96 16.2563L92.046 15.9213L90.5 12.2757L88.954 15.9213L85 16.2563L88.003 18.8578L87.101 22.7243L90.5 20.6724Z" fill="#F3E900"/>
<path d="M6.89941 19.6968H8.24707V20.7515H6.89941V23H5.77148V20.7515H0.446777V19.4771L5.47852 12.4971H6.89941V19.6968ZM5.77148 19.6968V13.7715L1.50146 19.6968H5.77148ZM9.7998 22.9414C9.66797 22.7998 9.60205 22.6191 9.60205 22.3994C9.60205 22.1797 9.66797 22.0015 9.7998 21.8647C9.93652 21.7231 10.1196 21.6523 10.3491 21.6523C10.5786 21.6523 10.7593 21.7231 10.8911 21.8647C11.0278 22.0015 11.0962 22.1797 11.0962 22.3994C11.0962 22.6191 11.0278 22.7998 10.8911 22.9414C10.7593 23.0781 10.5786 23.1465 10.3491 23.1465C10.1196 23.1465 9.93652 23.0781 9.7998 22.9414ZM12.3706 12.4971H18.9771V13.5518L14.3262 23H13.1982L17.8491 13.5518H12.3706V12.4971Z" fill="white"/>
</g>
</g>
<defs>
<clipPath id="clip0_1_592">
<rect width="96" height="34" fill="white"/>
</clipPath>
<clipPath id="clip1_1_592">
<rect width="96" height="34" fill="white"/>
</clipPath>
</defs>
</svg>
