<svg width="96" height="34" viewBox="0 0 96 34" fill="none" xmlns="http://www.w3.org/2000/svg">
<g clip-path="url(#clip0_1_582)">
<g clip-path="url(#clip1_1_582)">
<path d="M29.5 20.6724L32.899 22.7243L31.997 18.8578L35 16.2563L31.046 15.9213L29.5 12.2757L27.954 15.9213L24 16.2563L27.003 18.8578L26.101 22.7243L29.5 20.6724Z" fill="#F3EA00"/>
<path d="M44.5 20.6724L47.899 22.7243L46.997 18.8578L50 16.2563L46.046 15.9213L44.5 12.2757L42.954 15.9213L39 16.2563L42.003 18.8578L41.101 22.7243L44.5 20.6724Z" fill="#F3EA00"/>
<path d="M60 20.6724L63.09 22.7243L62.27 18.8578L65 16.2563L61.4054 15.9213L60 12.2757L58.5946 15.9213L55 16.2563L57.73 18.8578L56.91 22.7243L60 20.6724Z" fill="#F3EA00"/>
<path d="M75.5 20.6724L78.899 22.7243L77.997 18.8578L81 16.2563L77.046 15.9213L75.5 12.2757L73.954 15.9213L70 16.2563L73.003 18.8578L72.101 22.7243L75.5 20.6724Z" fill="#F3E900"/>
<path d="M90.5 20.6724L93.899 22.7243L92.997 18.8578L96 16.2563L92.046 15.9213L90.5 12.2757L88.954 15.9213L85 16.2563L88.003 18.8578L87.101 22.7243L90.5 20.6724Z" fill="#50737D"/>
<path d="M5.55176 17.4482C5.60059 17.458 5.66895 17.48 5.75684 17.5142C5.84961 17.5435 6.0083 17.624 6.23291 17.7559C6.45752 17.8828 6.65527 18.0342 6.82617 18.21C6.99707 18.3857 7.15088 18.6396 7.2876 18.9717C7.4292 19.2988 7.5 19.6675 7.5 20.0776C7.5 20.9077 7.17529 21.6279 6.52588 22.2383C5.87646 22.8438 5.02686 23.1465 3.97705 23.1465C3.52783 23.1465 3.10059 23.0928 2.69531 22.9854C2.29004 22.873 1.95557 22.7437 1.69189 22.5972C1.43311 22.4458 1.20361 22.292 1.00342 22.1357C0.803223 21.9795 0.65918 21.8477 0.571289 21.7402L0.446777 21.5718L1.20117 20.8247C1.2207 20.854 1.25488 20.9004 1.30371 20.9639C1.35254 21.0225 1.4624 21.125 1.6333 21.2715C1.8042 21.4131 1.98975 21.5425 2.18994 21.6597C2.39014 21.772 2.64893 21.8745 2.96631 21.9673C3.28857 22.0552 3.62549 22.0991 3.97705 22.0991C4.73877 22.0991 5.3418 21.9062 5.78613 21.5205C6.23047 21.1348 6.45264 20.6538 6.45264 20.0776C6.45264 19.5161 6.22314 19.0376 5.76416 18.6421C5.31006 18.2466 4.71436 18.0488 3.97705 18.0488H2.92236V17.0015H3.97705C4.60693 17.0015 5.1001 16.833 5.45654 16.4961C5.81787 16.1543 5.99854 15.6978 5.99854 15.1265C5.99854 14.6284 5.81543 14.2158 5.44922 13.8887C5.08789 13.5615 4.59717 13.3979 3.97705 13.3979C3.68896 13.3979 3.40576 13.4395 3.12744 13.5225C2.854 13.6006 2.62695 13.7007 2.44629 13.8228C2.26562 13.9399 2.10693 14.0596 1.97021 14.1816C1.83838 14.2988 1.74072 14.3989 1.67725 14.4819L1.57471 14.5991L0.827637 13.7715C0.856934 13.7324 0.898438 13.6812 0.952148 13.6177C1.00586 13.5542 1.13037 13.4419 1.32568 13.2808C1.521 13.1196 1.73096 12.978 1.95557 12.856C2.18018 12.729 2.47559 12.6143 2.8418 12.5117C3.20801 12.4043 3.58643 12.3506 3.97705 12.3506C4.89502 12.3506 5.64941 12.6216 6.24023 13.1636C6.83105 13.7007 7.12646 14.355 7.12646 15.1265C7.12646 15.4683 7.07031 15.7783 6.95801 16.0566C6.85059 16.335 6.71875 16.5571 6.5625 16.7231C6.40625 16.8892 6.25244 17.0308 6.10107 17.1479C5.95459 17.2603 5.8252 17.3408 5.71289 17.3896L5.55176 17.4482ZM9.41895 22.9414C9.28711 22.7998 9.22119 22.6191 9.22119 22.3994C9.22119 22.1797 9.28711 22.0015 9.41895 21.8647C9.55566 21.7231 9.73877 21.6523 9.96826 21.6523C10.1978 21.6523 10.3784 21.7231 10.5103 21.8647C10.647 22.0015 10.7153 22.1797 10.7153 22.3994C10.7153 22.6191 10.647 22.7998 10.5103 22.9414C10.3784 23.0781 10.1978 23.1465 9.96826 23.1465C9.73877 23.1465 9.55566 23.0781 9.41895 22.9414ZM15.8936 19.25C14.8828 19.25 14.043 18.9204 13.374 18.2612C12.7051 17.6021 12.3706 16.7817 12.3706 15.8003C12.3706 14.8188 12.71 13.9985 13.3887 13.3394C14.0674 12.6802 14.9268 12.3506 15.9668 12.3506C17.0068 12.3506 17.8662 12.6802 18.5449 13.3394C19.2285 13.9985 19.5703 14.8188 19.5703 15.8003C19.5703 16.1812 19.5068 16.5596 19.3799 16.9355C19.2529 17.3066 19.1309 17.5874 19.0137 17.7778L18.8159 18.0488L15.6665 23H14.5459L17.0215 19.1035C16.7285 19.2012 16.3525 19.25 15.8936 19.25ZM14.165 14.0645C13.7158 14.5039 13.4912 15.0825 13.4912 15.8003C13.4912 16.5181 13.7158 17.0991 14.165 17.5435C14.6191 17.9829 15.2197 18.2026 15.9668 18.2026C16.7188 18.2026 17.3193 17.9829 17.7686 17.5435C18.2178 17.0991 18.4424 16.5181 18.4424 15.8003C18.4424 15.0825 18.2178 14.5039 17.7686 14.0645C17.3193 13.6201 16.7188 13.3979 15.9668 13.3979C15.2197 13.3979 14.6191 13.6201 14.165 14.0645Z" fill="white"/>
</g>
</g>
<defs>
<clipPath id="clip0_1_582">
<rect width="96" height="34" fill="white"/>
</clipPath>
<clipPath id="clip1_1_582">
<rect width="96" height="34" fill="white"/>
</clipPath>
</defs>
</svg>
