<svg width="44" height="45" viewBox="0 0 44 45" fill="none" xmlns="http://www.w3.org/2000/svg">
<g clip-path="url(#clip0_1_964)">
<g clip-path="url(#clip1_1_964)">
<g clip-path="url(#clip2_1_964)">
<mask id="mask0_1_964" style="mask-type:luminance" maskUnits="userSpaceOnUse" x="0" y="0" width="44" height="45">
<path d="M44 0.590088H0V44.5901H44V0.590088Z" fill="white"/>
</mask>
<g mask="url(#mask0_1_964)">
<path d="M41.9994 22.7746V16.5905C41.9994 14.4936 40.3729 12.7882 38.3178 12.6228L32.5748 2.59171C32.0426 1.66397 31.1832 1.00089 30.1548 0.725548C29.1314 0.452084 28.0612 0.595707 27.1451 1.12885L7.45769 12.5906H3.99996C1.79397 12.5906 0 14.3844 0 16.5905V40.5901C0 42.7961 1.79388 44.5901 3.99996 44.5901H37.9994C40.2054 44.5901 41.9994 42.7962 41.9994 40.5901V34.406C43.1608 33.9918 43.9993 32.8923 43.9993 31.5903V25.5904C43.9993 24.2884 43.1608 23.1888 41.9994 22.7746ZM35.9939 12.5906H27.278L33.815 8.78473L35.9939 12.5906ZM32.8213 7.04917L23.3031 12.5906H19.3551L31.8342 5.32504L32.8213 7.04917ZM28.1519 2.8573C28.6041 2.59265 29.1323 2.52233 29.6373 2.65714C30.148 2.79383 30.5738 3.12392 30.8385 3.58582L30.8405 3.58947L15.3805 12.5906H11.4326L28.1519 2.8573ZM39.9994 40.5901C39.9994 41.6926 39.1019 42.5901 37.9994 42.5901H3.99996C2.89748 42.5901 2.00003 41.6926 2.00003 40.5901V16.5905C2.00003 15.488 2.89748 14.5906 3.99996 14.5906H37.9994C39.1019 14.5906 39.9994 15.488 39.9994 16.5905V22.5904H33.9995C30.6909 22.5904 27.9996 25.2818 27.9996 28.5903C27.9996 31.8989 30.6909 34.5902 33.9995 34.5902H39.9994V40.5901ZM41.9994 31.5903C41.9994 32.142 41.5512 32.5903 40.9994 32.5903H33.9995C31.7935 32.5903 29.9995 30.7964 29.9995 28.5903C29.9995 26.3843 31.7934 24.5904 33.9995 24.5904H40.9994C41.5511 24.5904 41.9994 25.0386 41.9994 25.5904V31.5903Z" fill="white"/>
<path d="M33.9999 26.5903C32.8975 26.5903 32 27.4878 32 28.5903C32 29.6928 32.8975 30.5902 33.9999 30.5902C35.1024 30.5902 35.9999 29.6928 35.9999 28.5903C36 27.4878 35.1025 26.5903 33.9999 26.5903Z" fill="white"/>
</g>
</g>
</g>
</g>
<defs>
<clipPath id="clip0_1_964">
<rect width="44" height="44" fill="white" transform="translate(0 0.590088)"/>
</clipPath>
<clipPath id="clip1_1_964">
<rect width="44" height="44" fill="white" transform="translate(0 0.590088)"/>
</clipPath>
<clipPath id="clip2_1_964">
<rect width="44" height="44" fill="white" transform="translate(0 0.590088)"/>
</clipPath>
</defs>
</svg>
